<?xml version="1.0" standalone="no"?>
<!DOCTYPE svg PUBLIC "-//W3C//DTD SVG 20010904//EN"
 "http://www.w3.org/TR/2001/REC-SVG-20010904/DTD/svg10.dtd">
<svg version="1.0" xmlns="http://www.w3.org/2000/svg"
 width="225.000000pt" height="225.000000pt" viewBox="0 0 225.000000 225.000000"
 preserveAspectRatio="xMidYMid meet">
<metadata>
Created by potrace 1.11, written by Peter Selinger 2001-2013
</metadata>
<g transform="translate(0.000000,225.000000) scale(0.100000,-0.100000)"
fill="#000000" stroke="none">
<path d="M1111 2219 c-5 -13 -41 -93 -80 -177 -39 -85 -71 -155 -71 -157 0 -2
21 3 47 11 59 18 154 18 223 0 30 -8 56 -13 58 -12 3 3 -153 344 -162 353 -3
3 -10 -5 -15 -18z"/>
<path d="M341 1892 c6 -15 35 -92 64 -172 29 -80 56 -153 60 -163 6 -14 11
-10 28 24 27 55 102 130 166 166 42 25 49 32 34 38 -10 4 -58 22 -108 40 -49
18 -127 47 -172 64 l-82 30 10 -27z"/>
<path d="M1770 1865 c-80 -30 -164 -62 -188 -71 l-43 -16 41 -20 c56 -28 131
-102 167 -167 25 -42 32 -49 38 -34 4 10 22 59 40 108 18 50 47 127 64 173 17
45 29 82 28 82 -1 -1 -67 -25 -147 -55z"/>
<path d="M1045 1753 c-151 -24 -267 -81 -372 -184 -115 -113 -181 -258 -190
-423 -17 -308 192 -591 489 -661 81 -19 225 -19 306 0 297 70 506 353 489 661
-16 280 -210 520 -476 589 -65 17 -196 27 -246 18z"/>
<path d="M190 1212 c-91 -42 -167 -80 -170 -85 -4 -6 330 -167 345 -167 2 0
-3 21 -11 47 -22 72 -18 174 10 261 4 12 4 22 -1 21 -4 0 -82 -35 -173 -77z"/>
<path d="M1896 1243 c18 -59 18 -154 0 -223 -8 -30 -13 -56 -12 -58 6 -6 341
154 341 163 0 7 -325 165 -340 165 -2 0 3 -21 11 -47z"/>
<path d="M465 693 c-4 -10 -22 -58 -40 -108 -18 -49 -47 -127 -64 -172 l-30
-82 82 30 c45 17 123 46 172 64 50 18 98 36 108 40 15 6 11 11 -24 29 -57 28
-130 101 -166 165 -25 42 -32 49 -38 34z"/>
<path d="M1757 669 c-25 -53 -102 -130 -166 -166 -42 -25 -49 -32 -34 -38 10
-4 59 -22 108 -40 50 -18 127 -47 172 -64 l82 -30 -10 27 c-6 15 -35 94 -65
177 -31 82 -58 154 -62 161 -4 7 -14 -3 -25 -27z"/>
<path d="M960 367 c0 -17 161 -351 167 -347 7 4 163 336 163 345 0 2 -21 -3
-47 -11 -72 -22 -174 -18 -260 10 -13 4 -23 5 -23 3z"/>
</g>
</svg>
